<?xml version="1.0" encoding="UTF-8" standalone="no" ?>
<!DOCTYPE svg PUBLIC "-//W3C//DTD SVG 1.1//EN" "http://www.w3.org/Graphics/SVG/1.1/DTD/svg11.dtd">
<svg xmlns="http://www.w3.org/2000/svg" xmlns:xlink="http://www.w3.org/1999/xlink" version="1.1" width="223.17000000000007" height="138.56813734251142" viewBox="0 0 223.17000000000007 138.56813734251142" xml:space="preserve">
<desc>Created with Fabric.js 5.3.0</desc>
<defs>
</defs>
<rect x="0" y="0" width="100%" height="100%" fill="white"></rect>
<g transform="matrix(4.92 0 0 4.92 69.14 69.28)"  >
<path style="stroke: none; stroke-width: 0.2; stroke-dasharray: none; stroke-linecap: butt; stroke-dashoffset: 0; stroke-linejoin: miter; stroke-miterlimit: 4; fill: rgb(33,33,33); fill-rule: nonzero; opacity: 1;" vector-effect="non-scaling-stroke"  transform=" translate(-14, -14)" d="M 16.479896 21.001958 L 16.75 21 C 17.970235 21 18.611244 21.505803 19.402063 22.704166 L 19.795827999999997 23.312441 C 20.102826999999998 23.766938 20.294436999999995 23.957325 20.535783999999996 24.056793 C 20.968486999999996 24.235127 21.327100999999995 24.147443 22.644077999999997 23.513320999999998 L 23.047326999999996 23.317031999999998 C 23.870997999999997 22.912670999999996 24.433028999999994 22.681160999999996 25.068097999999996 22.522392999999997 C 25.469943999999995 22.421931999999998 25.877144999999995 22.666251999999997 25.977606999999995 23.068098 C 26.078067999999995 23.469943999999998 25.833747999999996 23.877145 25.431901999999994 23.977607 C 25.037160999999994 24.076287 24.658945999999993 24.217882 24.164135999999992 24.445899999999998 L 23.00548999999999 25.003266999999997 C 21.43762999999999 25.743693999999998 20.905900999999993 25.831732 19.96421599999999 25.443627999999997 C 19.33912399999999 25.186002999999996 18.98367699999999 24.813297999999996 18.46356399999999 24.018022999999996 L 18.26889 23.714085 C 17.707110999999998 22.828873 17.405779 22.538454 16.868844 22.503665 L 16.75 22.5 C 16.201731 22.5 16.09331 22.56846 14.009281 24.115024 C 12.267039 25.407949 10.938336 26.025498 9.2486424 26.025498 C 7.1887286999999995 26.025498 5.2477336999999995 25.647067 3.4314587999999997 24.890535999999997 L 6.313778 24.224178 C 7.257694 24.425075999999997 8.235671400000001 24.525498 9.2486424 24.525498 C 10.539304 24.525498 11.609129 24.028268999999998 13.11538 22.910474 L 14.275444 22.054549 C 15.546807000000001 21.13049 15.829611 21.016032000000003 16.479896 21.001958000000002 z M 22.777099 3.2220898 C 24.450722 4.8957133 24.450757 7.6091608 22.777189 9.2828132 L 21.741655 10.318448 C 22.893626 11.719966 22.852153 13.205377 21.781105 14.279556 L 18.780075 17.280587 L 18.780075 17.280587 C 18.487039 17.573338 18.012166 17.573108 17.719415 17.280073 C 17.426664000000002 16.987037 17.426894 16.512164000000002 17.719929 16.219413000000003 L 20.718899 13.220444000000002 C 21.203959 12.733967000000002 21.260004000000002 12.129998000000002 20.678939 11.381895000000002 L 10.084544 21.976101 C 9.7863546 22.274305 9.410361199999999 22.482705 8.999447 22.577531 L 2.9186446000000004 23.980793000000002 C 2.3785906000000003 24.105421000000003 1.8945787000000003 23.621409000000003 2.0192066000000004 23.081355000000002 L 3.4224779000000005 17.000513 C 3.5172959000000006 16.589636000000002 3.7256659000000005 16.213674 4.023827600000001 15.915497000000002 L 16.716502 3.2221799 C 18.390041 1.5485555 21.103434999999998 1.5485106 22.777099 3.2220898 z M 17.777189 4.2828132 L 5.0845146 16.97613 C 4.9851276 17.07552 4.9156706 17.200843000000003 4.884064700000001 17.337802 L 3.7506248000000006 22.249375 L 8.662157800000001 21.115944 C 8.799129200000001 21.084334 8.924460300000002 21.014868999999997 9.023856700000001 20.915468 L 21.716502 8.2221799 C 22.804305999999997 7.1343205 22.804285999999998 5.370604800000001 21.716458999999997 4.2827701000000005 C 20.628590999999997 3.1949651000000006 18.864950999999998 3.1949965000000002 17.777188999999996 4.2828132000000005 z" stroke-linecap="round" />
</g>
<g transform="matrix(1.12 0 0 1.12 154.93 69.55)"  >
<g style="" vector-effect="non-scaling-stroke"   >
		<g transform="matrix(1 0 0 1 18.57 0.85)"  >
<path style="stroke: none; stroke-width: 1; stroke-dasharray: none; stroke-linecap: butt; stroke-dashoffset: 0; stroke-linejoin: miter; stroke-miterlimit: 4; fill: rgb(193,23,25); fill-rule: nonzero; opacity: 1;" vector-effect="non-scaling-stroke"  transform=" translate(-114.13, -193.92)" d="M 80.175631 224.7074 C 80.22289099999999 223.75861 85.79428899999999 209.18232 92.556525 192.31566 L 104.8515 161.649 L 114.08511 161.649 L 123.31871 161.649 L 135.70421 193.62648000000002 C 142.51622999999998 211.21410000000003 148.08971 225.79038000000003 148.08971 226.01823000000002 C 148.08971 226.24607 143.77462 226.25621 138.50062 226.04073000000002 L 128.91152 225.64898000000002 L 125.7169 217.64898000000002 C 117.70639 197.58898000000002 114.39354 190.23405000000002 113.68683 190.94076 C 113.26706 191.36053 109.81863 199.3416 106.02366 208.67648000000003 L 99.12371200000001 225.64898000000002 L 89.60671200000002 226.04073000000002 C 82.47539900000001 226.33427000000003 80.11124900000002 226.00003000000004 80.17563100000001 224.70739000000003 z" stroke-linecap="round" />
</g>
		<g transform="matrix(1 0 0 1 -26.2 0.58)"  >
<path style="stroke: none; stroke-width: 1; stroke-dasharray: none; stroke-linecap: butt; stroke-dashoffset: 0; stroke-linejoin: miter; stroke-miterlimit: 4; fill: rgb(193,23,25); fill-rule: nonzero; opacity: 1;" vector-effect="non-scaling-stroke"  transform=" translate(-69.36, -193.65)" d="M 44.459707 224.649 C 44.820122000000005 223.73233 50.625926 209.03233 57.361495000000005 191.98233 L 69.607984 160.98234 L 78.624706 160.98234 L 87.641428 160.98234 L 90.977652 169.39108 L 94.31387600000001 177.79983 L 89.70180400000001 190.03343999999998 C 87.165164 196.76191999999998 84.67068900000001 202.00806999999998 84.158527 201.69152999999997 C 83.646365 201.37499999999997 82.425324 198.68593999999996 81.445104 195.71583999999996 C 80.464885 192.74574999999996 79.294616 190.31566999999995 78.844508 190.31566999999995 C 78.39439800000001 190.31566999999995 74.776864 198.41566999999995 70.805541 208.31566999999995 L 63.584954 226.31566999999995 L 53.694681 226.31566999999995 C 46.321858000000006 226.31566999999995 43.971206 225.89143999999996 44.459707 224.64899999999994 z" stroke-linecap="round" />
</g>
</g>
</g>
</svg>